<mxfile host="app.diagrams.net" agent="Mozilla/5.0 (Windows NT 10.0; Win64; x64; rv:136.0) Gecko/20100101 Firefox/136.0" version="26.1.1">
  <diagram id="C5RBs43oDa-KdzZeNtuy" name="Page-1">
    <mxGraphModel dx="1050" dy="558" grid="1" gridSize="10" guides="1" tooltips="1" connect="1" arrows="1" fold="1" page="1" pageScale="1" pageWidth="827" pageHeight="1169" math="0" shadow="0">
      <root>
        <mxCell id="WIyWlLk6GJQsqaUBKTNV-0" />
        <mxCell id="WIyWlLk6GJQsqaUBKTNV-1" parent="WIyWlLk6GJQsqaUBKTNV-0" />
        <mxCell id="0ASaABYVrz-RMeeTezYd-35" style="edgeStyle=orthogonalEdgeStyle;rounded=0;orthogonalLoop=1;jettySize=auto;html=1;exitX=0.5;exitY=1;exitDx=0;exitDy=0;entryX=0.5;entryY=0;entryDx=0;entryDy=0;" edge="1" parent="WIyWlLk6GJQsqaUBKTNV-1" source="0ASaABYVrz-RMeeTezYd-0" target="0ASaABYVrz-RMeeTezYd-4">
          <mxGeometry relative="1" as="geometry" />
        </mxCell>
        <mxCell id="0ASaABYVrz-RMeeTezYd-0" value="&lt;div&gt;Driver Index FX&lt;/div&gt;" style="ellipse;whiteSpace=wrap;html=1;" vertex="1" parent="WIyWlLk6GJQsqaUBKTNV-1">
          <mxGeometry x="70" y="50" width="120" height="80" as="geometry" />
        </mxCell>
        <mxCell id="0ASaABYVrz-RMeeTezYd-34" style="edgeStyle=orthogonalEdgeStyle;rounded=0;orthogonalLoop=1;jettySize=auto;html=1;exitX=0.5;exitY=1;exitDx=0;exitDy=0;entryX=0.5;entryY=0;entryDx=0;entryDy=0;" edge="1" parent="WIyWlLk6GJQsqaUBKTNV-1" source="0ASaABYVrz-RMeeTezYd-4" target="0ASaABYVrz-RMeeTezYd-7">
          <mxGeometry relative="1" as="geometry" />
        </mxCell>
        <mxCell id="0ASaABYVrz-RMeeTezYd-4" value="User input Driver Forename and surname" style="shape=parallelogram;perimeter=parallelogramPerimeter;whiteSpace=wrap;html=1;fixedSize=1;" vertex="1" parent="WIyWlLk6GJQsqaUBKTNV-1">
          <mxGeometry x="70" y="190" width="120" height="60" as="geometry" />
        </mxCell>
        <mxCell id="0ASaABYVrz-RMeeTezYd-6" value="Note if one input is left blank the first instance of the only given input is shown" style="rounded=0;whiteSpace=wrap;html=1;" vertex="1" parent="WIyWlLk6GJQsqaUBKTNV-1">
          <mxGeometry x="420" y="480" width="120" height="60" as="geometry" />
        </mxCell>
        <mxCell id="0ASaABYVrz-RMeeTezYd-33" style="edgeStyle=orthogonalEdgeStyle;rounded=0;orthogonalLoop=1;jettySize=auto;html=1;exitX=0.5;exitY=1;exitDx=0;exitDy=0;entryX=0.5;entryY=0;entryDx=0;entryDy=0;" edge="1" parent="WIyWlLk6GJQsqaUBKTNV-1" source="0ASaABYVrz-RMeeTezYd-7" target="0ASaABYVrz-RMeeTezYd-8">
          <mxGeometry relative="1" as="geometry" />
        </mxCell>
        <mxCell id="0ASaABYVrz-RMeeTezYd-7" value="&lt;div&gt;Retrieve the 2 inputs and append them to a variable&lt;/div&gt;" style="rounded=0;whiteSpace=wrap;html=1;" vertex="1" parent="WIyWlLk6GJQsqaUBKTNV-1">
          <mxGeometry x="70" y="300" width="120" height="60" as="geometry" />
        </mxCell>
        <mxCell id="0ASaABYVrz-RMeeTezYd-32" style="edgeStyle=orthogonalEdgeStyle;rounded=0;orthogonalLoop=1;jettySize=auto;html=1;exitX=0.5;exitY=1;exitDx=0;exitDy=0;entryX=0.5;entryY=0;entryDx=0;entryDy=0;" edge="1" parent="WIyWlLk6GJQsqaUBKTNV-1" source="0ASaABYVrz-RMeeTezYd-8" target="0ASaABYVrz-RMeeTezYd-11">
          <mxGeometry relative="1" as="geometry" />
        </mxCell>
        <mxCell id="0ASaABYVrz-RMeeTezYd-8" value="Get 2 dataframes, one with all the surnames matching the user input, one with all the forenames" style="rounded=0;whiteSpace=wrap;html=1;" vertex="1" parent="WIyWlLk6GJQsqaUBKTNV-1">
          <mxGeometry x="60" y="410" width="140" height="80" as="geometry" />
        </mxCell>
        <mxCell id="0ASaABYVrz-RMeeTezYd-14" value="NO" style="edgeStyle=orthogonalEdgeStyle;rounded=0;orthogonalLoop=1;jettySize=auto;html=1;exitX=1;exitY=0.5;exitDx=0;exitDy=0;entryX=0;entryY=0.5;entryDx=0;entryDy=0;" edge="1" parent="WIyWlLk6GJQsqaUBKTNV-1" source="0ASaABYVrz-RMeeTezYd-11" target="0ASaABYVrz-RMeeTezYd-12">
          <mxGeometry relative="1" as="geometry" />
        </mxCell>
        <mxCell id="0ASaABYVrz-RMeeTezYd-16" value="YES" style="edgeStyle=orthogonalEdgeStyle;rounded=0;orthogonalLoop=1;jettySize=auto;html=1;exitX=0.5;exitY=1;exitDx=0;exitDy=0;entryX=0.5;entryY=0;entryDx=0;entryDy=0;" edge="1" parent="WIyWlLk6GJQsqaUBKTNV-1" source="0ASaABYVrz-RMeeTezYd-11" target="0ASaABYVrz-RMeeTezYd-15">
          <mxGeometry relative="1" as="geometry" />
        </mxCell>
        <mxCell id="0ASaABYVrz-RMeeTezYd-11" value="Any matches yes or no?" style="rhombus;whiteSpace=wrap;html=1;" vertex="1" parent="WIyWlLk6GJQsqaUBKTNV-1">
          <mxGeometry x="90" y="520" width="80" height="80" as="geometry" />
        </mxCell>
        <mxCell id="0ASaABYVrz-RMeeTezYd-12" value="Clear all fields" style="rounded=0;whiteSpace=wrap;html=1;" vertex="1" parent="WIyWlLk6GJQsqaUBKTNV-1">
          <mxGeometry x="250" y="530" width="120" height="60" as="geometry" />
        </mxCell>
        <mxCell id="0ASaABYVrz-RMeeTezYd-13" value="&lt;div&gt;Return an error message&lt;/div&gt;" style="rounded=0;whiteSpace=wrap;html=1;" vertex="1" parent="WIyWlLk6GJQsqaUBKTNV-1">
          <mxGeometry x="250" y="430" width="120" height="60" as="geometry" />
        </mxCell>
        <mxCell id="0ASaABYVrz-RMeeTezYd-22" style="edgeStyle=orthogonalEdgeStyle;rounded=0;orthogonalLoop=1;jettySize=auto;html=1;exitX=0.5;exitY=1;exitDx=0;exitDy=0;entryX=0.5;entryY=0;entryDx=0;entryDy=0;" edge="1" parent="WIyWlLk6GJQsqaUBKTNV-1" source="0ASaABYVrz-RMeeTezYd-15" target="0ASaABYVrz-RMeeTezYd-17">
          <mxGeometry relative="1" as="geometry" />
        </mxCell>
        <mxCell id="0ASaABYVrz-RMeeTezYd-15" value="Get the index value of all the found matches for both dataframes" style="rounded=0;whiteSpace=wrap;html=1;" vertex="1" parent="WIyWlLk6GJQsqaUBKTNV-1">
          <mxGeometry x="70" y="690" width="120" height="60" as="geometry" />
        </mxCell>
        <mxCell id="0ASaABYVrz-RMeeTezYd-23" style="edgeStyle=orthogonalEdgeStyle;rounded=0;orthogonalLoop=1;jettySize=auto;html=1;exitX=0.5;exitY=1;exitDx=0;exitDy=0;entryX=0.5;entryY=0;entryDx=0;entryDy=0;" edge="1" parent="WIyWlLk6GJQsqaUBKTNV-1" source="0ASaABYVrz-RMeeTezYd-17" target="0ASaABYVrz-RMeeTezYd-18">
          <mxGeometry relative="1" as="geometry" />
        </mxCell>
        <mxCell id="0ASaABYVrz-RMeeTezYd-17" value="Append them to a list each" style="rounded=0;whiteSpace=wrap;html=1;" vertex="1" parent="WIyWlLk6GJQsqaUBKTNV-1">
          <mxGeometry x="70" y="820" width="120" height="60" as="geometry" />
        </mxCell>
        <mxCell id="0ASaABYVrz-RMeeTezYd-24" style="edgeStyle=orthogonalEdgeStyle;rounded=0;orthogonalLoop=1;jettySize=auto;html=1;exitX=0.5;exitY=1;exitDx=0;exitDy=0;" edge="1" parent="WIyWlLk6GJQsqaUBKTNV-1" source="0ASaABYVrz-RMeeTezYd-18" target="0ASaABYVrz-RMeeTezYd-19">
          <mxGeometry relative="1" as="geometry" />
        </mxCell>
        <mxCell id="0ASaABYVrz-RMeeTezYd-18" value="Intersect the two lists and find the common index, should only be one" style="rounded=0;whiteSpace=wrap;html=1;" vertex="1" parent="WIyWlLk6GJQsqaUBKTNV-1">
          <mxGeometry x="70" y="950" width="120" height="60" as="geometry" />
        </mxCell>
        <mxCell id="0ASaABYVrz-RMeeTezYd-25" style="edgeStyle=orthogonalEdgeStyle;rounded=0;orthogonalLoop=1;jettySize=auto;html=1;exitX=1;exitY=0.5;exitDx=0;exitDy=0;" edge="1" parent="WIyWlLk6GJQsqaUBKTNV-1" source="0ASaABYVrz-RMeeTezYd-19" target="0ASaABYVrz-RMeeTezYd-20">
          <mxGeometry relative="1" as="geometry" />
        </mxCell>
        <mxCell id="0ASaABYVrz-RMeeTezYd-19" value="Access that index in the orginal dataframe" style="rounded=0;whiteSpace=wrap;html=1;" vertex="1" parent="WIyWlLk6GJQsqaUBKTNV-1">
          <mxGeometry x="70" y="1050" width="120" height="60" as="geometry" />
        </mxCell>
        <mxCell id="0ASaABYVrz-RMeeTezYd-26" style="edgeStyle=orthogonalEdgeStyle;rounded=0;orthogonalLoop=1;jettySize=auto;html=1;exitX=0.5;exitY=0;exitDx=0;exitDy=0;entryX=0.5;entryY=1;entryDx=0;entryDy=0;" edge="1" parent="WIyWlLk6GJQsqaUBKTNV-1" source="0ASaABYVrz-RMeeTezYd-20" target="0ASaABYVrz-RMeeTezYd-21">
          <mxGeometry relative="1" as="geometry" />
        </mxCell>
        <mxCell id="0ASaABYVrz-RMeeTezYd-20" value="Retrieve the information and append it to variables, eg nationality" style="rounded=0;whiteSpace=wrap;html=1;" vertex="1" parent="WIyWlLk6GJQsqaUBKTNV-1">
          <mxGeometry x="250" y="1050" width="120" height="60" as="geometry" />
        </mxCell>
        <mxCell id="0ASaABYVrz-RMeeTezYd-31" style="edgeStyle=orthogonalEdgeStyle;rounded=0;orthogonalLoop=1;jettySize=auto;html=1;exitX=0.5;exitY=0;exitDx=0;exitDy=0;entryX=0.5;entryY=1;entryDx=0;entryDy=0;" edge="1" parent="WIyWlLk6GJQsqaUBKTNV-1" source="0ASaABYVrz-RMeeTezYd-21" target="0ASaABYVrz-RMeeTezYd-27">
          <mxGeometry relative="1" as="geometry" />
        </mxCell>
        <mxCell id="0ASaABYVrz-RMeeTezYd-21" value="Append to HTML elements in the information system" style="rounded=0;whiteSpace=wrap;html=1;" vertex="1" parent="WIyWlLk6GJQsqaUBKTNV-1">
          <mxGeometry x="250" y="950" width="120" height="60" as="geometry" />
        </mxCell>
        <mxCell id="0ASaABYVrz-RMeeTezYd-29" value="NO" style="edgeStyle=orthogonalEdgeStyle;rounded=0;orthogonalLoop=1;jettySize=auto;html=1;exitX=1;exitY=0.5;exitDx=0;exitDy=0;entryX=0;entryY=0.5;entryDx=0;entryDy=0;" edge="1" parent="WIyWlLk6GJQsqaUBKTNV-1" source="0ASaABYVrz-RMeeTezYd-27" target="0ASaABYVrz-RMeeTezYd-28">
          <mxGeometry relative="1" as="geometry" />
        </mxCell>
        <mxCell id="0ASaABYVrz-RMeeTezYd-30" value="YES" style="edgeStyle=orthogonalEdgeStyle;rounded=0;orthogonalLoop=1;jettySize=auto;html=1;entryX=1;entryY=0.5;entryDx=0;entryDy=0;" edge="1" parent="WIyWlLk6GJQsqaUBKTNV-1" source="0ASaABYVrz-RMeeTezYd-27" target="0ASaABYVrz-RMeeTezYd-0">
          <mxGeometry relative="1" as="geometry" />
        </mxCell>
        <mxCell id="0ASaABYVrz-RMeeTezYd-27" value="Reset Filters" style="rhombus;whiteSpace=wrap;html=1;" vertex="1" parent="WIyWlLk6GJQsqaUBKTNV-1">
          <mxGeometry x="270" y="810" width="80" height="80" as="geometry" />
        </mxCell>
        <mxCell id="0ASaABYVrz-RMeeTezYd-28" value="End" style="rounded=0;whiteSpace=wrap;html=1;" vertex="1" parent="WIyWlLk6GJQsqaUBKTNV-1">
          <mxGeometry x="440" y="820" width="120" height="60" as="geometry" />
        </mxCell>
      </root>
    </mxGraphModel>
  </diagram>
</mxfile>
